<?xml version="1.0" encoding="UTF-8" standalone="no"?>
<!DOCTYPE svg PUBLIC "-//W3C//DTD SVG 1.1//EN" "http://www.w3.org/Graphics/SVG/1.1/DTD/svg11.dtd">
<svg version="1.1" xmlns="http://www.w3.org/2000/svg" xmlns:xlink="http://www.w3.org/1999/xlink" preserveAspectRatio="xMidYMid meet" viewBox="0 0 640 640" width="640" height="640"><defs><path d="M442.16 158.29C442.16 158.29 442.16 158.29 442.16 158.29C442.16 311.89 442.16 397.22 442.16 414.29C442.16 414.29 442.16 414.29 442.16 414.29C288.56 414.29 203.23 414.29 186.16 414.29C186.16 414.29 186.16 414.29 186.16 414.29C186.16 260.69 186.16 175.36 186.16 158.29C186.16 158.29 186.16 158.29 186.16 158.29C339.76 158.29 425.1 158.29 442.16 158.29Z" id="b3VO3ETuw"></path><path d="M347.82 233.51C347.72 283.77 334.44 324.28 318.15 324C302 323.72 288.93 283.44 288.82 233.63" id="adX8CHt9n"></path><path d="M396.8 251.37C396.02 293.33 360.25 326.74 316.91 325.99C274.78 325.25 240.77 292.46 239.84 251.68" id="b35HZRAWMc"></path><path d="M291.32 199.5C302.36 199.5 311.32 208.23 311.32 219C311.32 229.77 302.36 238.5 291.32 238.5C280.27 238.5 271.32 229.77 271.32 219C271.32 208.23 280.27 199.5 291.32 199.5Z" id="a2q82WAmmn"></path><path d="M347.82 199.5C359.14 199.5 368.32 208.23 368.32 219C368.32 229.77 359.14 238.5 347.82 238.5C336.49 238.5 327.32 229.77 327.32 219C327.32 208.23 336.49 199.5 347.82 199.5Z" id="bSrXemdeC"></path><path d="M397.32 213.5C408.36 213.5 417.32 222.45 417.32 233.5C417.32 244.55 408.36 253.5 397.32 253.5C386.27 253.5 377.32 244.55 377.32 233.5C377.32 222.45 386.27 213.5 397.32 213.5Z" id="c3PsMxpSBN"></path><path d="M240.32 218.5C251.36 218.5 260.32 227.23 260.32 238C260.32 248.77 251.36 257.5 240.32 257.5C229.27 257.5 220.32 248.77 220.32 238C220.32 227.23 229.27 218.5 240.32 218.5Z" id="d9xMswUDM"></path><path d="M318.82 326L318.82 362.36" id="fOngTSOoE"></path><path d="M318.82 351.5C330.14 351.5 339.32 360.23 339.32 371C339.32 381.77 330.14 390.5 318.82 390.5C307.49 390.5 298.32 381.77 298.32 371C298.32 360.23 307.49 351.5 318.82 351.5Z" id="a16iJ60piA"></path></defs><g><g><g><use xlink:href="#b3VO3ETuw" opacity="0" fill="#000000" fill-opacity="1"></use><g><use xlink:href="#b3VO3ETuw" opacity="0" fill-opacity="0" stroke="#000000" stroke-width="1" stroke-opacity="0"></use></g></g><g><use xlink:href="#adX8CHt9n" opacity="1" fill="#000000" fill-opacity="0"></use><g><use xlink:href="#adX8CHt9n" opacity="1" fill-opacity="0" stroke="#8faadc" stroke-width="8" stroke-opacity="1"></use></g></g><g><use xlink:href="#b35HZRAWMc" opacity="1" fill="#000000" fill-opacity="0"></use><g><use xlink:href="#b35HZRAWMc" opacity="1" fill-opacity="0" stroke="#8faadc" stroke-width="8" stroke-opacity="1"></use></g></g><g><use xlink:href="#a2q82WAmmn" opacity="1" fill="#00b050" fill-opacity="1"></use><g><use xlink:href="#a2q82WAmmn" opacity="1" fill-opacity="0" stroke="#ffc000" stroke-width="1.33" stroke-opacity="1"></use></g></g><g><use xlink:href="#bSrXemdeC" opacity="1" fill="#ff0000" fill-opacity="1"></use><g><use xlink:href="#bSrXemdeC" opacity="1" fill-opacity="0" stroke="#ffc000" stroke-width="1.33" stroke-opacity="1"></use></g></g><g><use xlink:href="#c3PsMxpSBN" opacity="1" fill="#00b0f0" fill-opacity="1"></use><g><use xlink:href="#c3PsMxpSBN" opacity="1" fill-opacity="0" stroke="#ffc000" stroke-width="1.33" stroke-opacity="1"></use></g></g><g><use xlink:href="#d9xMswUDM" opacity="1" fill="#00b0f0" fill-opacity="1"></use><g><use xlink:href="#d9xMswUDM" opacity="1" fill-opacity="0" stroke="#ffc000" stroke-width="1.33" stroke-opacity="1"></use></g></g><g><use xlink:href="#fOngTSOoE" opacity="1" fill="#000000" fill-opacity="0"></use><g><use xlink:href="#fOngTSOoE" opacity="1" fill-opacity="0" stroke="#8faadc" stroke-width="8" stroke-opacity="1"></use></g></g><g><use xlink:href="#a16iJ60piA" opacity="1" fill="#00b0f0" fill-opacity="1"></use><g><use xlink:href="#a16iJ60piA" opacity="1" fill-opacity="0" stroke="#ffc000" stroke-width="1.33" stroke-opacity="1"></use></g></g></g></g></svg>